<?xml version="1.0"?>
<svg xmlns="http://www.w3.org/2000/svg" xmlns:xlink="http://www.w3.org/1999/xlink" version="1.1" viewBox="0 0 224 224" width="30px" height="30px"><g fill="none" fill-rule="nonzero" stroke="none" stroke-width="1" stroke-linecap="butt" stroke-linejoin="miter" stroke-miterlimit="10" stroke-dasharray="" stroke-dashoffset="0" font-family="none" font-weight="none" font-size="none" text-anchor="none" style="mix-blend-mode: normal"><path d="M0,224v-224h224v224z" fill="none"/><path d="M0,224v-224h224v224zM219.52,219.52v-215.04h-215.04v215.04z" fill="#000000"/><g fill="#9b59b6"><path d="M112,40.32c-39.43032,0 -71.39941,31.96908 -71.39941,71.39941c0,33.45657 23.03821,61.45109 54.09695,69.19793c-0.3332,-0.96389 -0.5474,-2.08248 -0.5474,-3.46882v-12.20335c-2.89763,0 -7.75279,0 -8.97253,0c-4.88491,0 -9.22837,-2.10033 -11.33466,-6.0035c-2.33833,-4.33751 -2.74293,-10.97171 -8.53818,-15.02958c-1.71954,-1.35064 -0.41055,-2.89168 1.57079,-2.68343c3.65922,1.03529 6.69369,3.54617 9.54967,7.27084c2.84408,3.73062 4.18282,4.57551 9.49612,4.57551c2.57633,0 6.4319,-0.14875 10.06137,-0.71994c1.95158,-4.95631 5.32521,-9.51992 9.44852,-11.6738c-23.776,-2.44543 -35.12256,-14.27393 -35.12256,-30.33285c0,-6.91384 2.94523,-13.60159 7.94913,-19.23619c-1.64219,-5.59295 -3.70682,-16.99901 0.63069,-21.34247c10.69801,0 17.16561,6.93764 18.71854,8.81188c5.33116,-1.82663 11.18591,-2.86193 17.33816,-2.86193c6.16415,0 12.0427,1.03529 17.38576,2.87383c1.53509,-1.86233 8.00863,-8.82378 18.73044,-8.82378c4.35536,4.34941 2.26693,15.80307 0.60689,21.38412c4.97416,5.6227 7.90153,12.2926 7.90153,19.19454c0,16.04702 -11.32871,27.86957 -35.06901,30.3269c6.53305,3.40932 11.29896,12.98874 11.29896,20.20603v16.26717c0,0.61879 -0.13685,1.06504 -0.20825,1.59459c27.82197,-9.75197 47.80785,-36.16975 47.80785,-67.32369c0,-39.43032 -31.96908,-71.39941 -71.39941,-71.39941z"/></g><path d="M0,224v-224h224v224z" fill="none"/><path d="M4.48,219.52v-215.04h215.04v215.04z" fill="none"/></g></svg>
