<svg xmlns="http://www.w3.org/2000/svg" xmlns:xlink="http://www.w3.org/1999/xlink" viewBox="0 0 101.89 48.58">
  <defs>
    <style>
      .line {
        fill: #fff;
      }

      .line-mask {
        mask: url(#mask);
      }
    </style>
    <mask id="mask" x="99.95" y="0" width="1.94" height="1.85" maskUnits="userSpaceOnUse">
      <g id="mask-2">
        <polygon id="path-1" class="line" points="99.95 0 101.89 0 101.89 1.85 99.95 1.85 99.95 0"/>
      </g>
    </mask>
  </defs>
  <title>logo-white</title>
  <g id="Layer_2" data-name="Layer 2">
    <g id="logo">
      <path id="Fill-1" class="line" d="M64.09,35.33a8.6,8.6,0,1,1-8.6-8.59,8.59,8.59,0,0,1,8.6,8.59"/>
      <path id="Fill-3" class="line" d="M21.18,24.74v2H39.82c-1.76,7.91-8.43,15.09-18.47,15.09A18.9,18.9,0,0,1,7.66,36,20.12,20.12,0,0,1,2,21.94a20.33,20.33,0,0,1,5.62-14A19.1,19.1,0,0,1,21.36,2,18.53,18.53,0,0,1,38.88,13.67L39,14h2.15l-.25-.7C38.13,5.35,30.27,0,21.36,0A20.89,20.89,0,0,0,6.21,6.46a22.37,22.37,0,0,0,0,30.95,20.93,20.93,0,0,0,15.14,6.52c10,0,17.07-6.75,19.8-14.27a15.16,15.16,0,0,0,1.07-4.35l0-.57Z"/>
      <path id="Fill-5" class="line" d="M97.89,33.34l0,.5c-.27,9.4-3.05,11.44-3.78,11.44-.9,0-.9-2.36-.9-3.38V18.82c0-4.4,0-10.43-6.32-14.83-3.6-2.53-9.4-4-15.55-4-12,0-20.77,5.35-20.77,12.72a9.13,9.13,0,0,0,9.09,9.36,9.34,9.34,0,0,0,9.45-9.18A7.85,7.85,0,0,0,61.16,5a7.21,7.21,0,0,0-.94.06c1.72-2.61,5.18-3.19,7.53-3.26,6.74,0,6,8.76,6,8.76v1.77h0v22c0,.92,0,1.69.08,2.33v0l0,.14c.05.62.11,1.1.17,1.47l0,.11a7.16,7.16,0,0,0,.16.76,12.44,12.44,0,0,0,.68,2h0C77.11,46.5,82.33,48,85,48.4a14.36,14.36,0,0,0,4.25,0h.07l.14,0h0a14.36,14.36,0,0,0,5.19-1.6c4.82-2.51,4.9-12.55,4.9-13v-.51Z"/>
      <polygon id="Fill-7" class="line" points="97.89 0 97.89 0.28 98.53 0.28 98.53 1.85 98.82 1.85 98.82 0.28 99.45 0.28 99.45 0 97.89 0"/>
      <g id="Group-11">
        <g class="line-mask">
          <polygon id="Fill-9" class="line" points="101.55 0 100.96 1.28 100.91 1.4 100.87 1.28 100.28 0 99.95 0 99.95 1.85 100.24 1.85 100.24 0.57 100.29 0.72 100.79 1.85 101.04 1.85 101.54 0.72 101.59 0.57 101.59 1.85 101.89 1.85 101.89 0 101.55 0"/>
        </g>
      </g>
    </g>
  </g>
</svg>
